<?xml version="1.0" encoding="utf-8"?>
<!-- Generator: Adobe Illustrator 13.0.0, SVG Export Plug-In . SVG Version: 6.00 Build 14948)  -->
<!DOCTYPE svg PUBLIC "-//W3C//DTD SVG 1.1//EN" "http://www.w3.org/Graphics/SVG/1.1/DTD/svg11.dtd">
<svg version="1.1" id="Layer_1" xmlns="http://www.w3.org/2000/svg" xmlns:xlink="http://www.w3.org/1999/xlink" x="0px" y="0px"
	 width="146.967px" height="85.067px" viewBox="0 0 146.967 85.067" enable-background="new 0 0 146.967 85.067"
	 xml:space="preserve">
<g>
	<g>
		<g>
			<path d="M64.523,42.264c0-1.513-0.063-3.216-0.504-4.539c-0.441-1.261-1.134-2.144-2.206-2.144
				c-1.764,0.063-2.332,1.891-2.332,4.602c0,1.575,0.693,3.214,1.702,4.979c1.008,1.766,2.333,3.594,3.656,5.547
				c1.575,2.333,3.151,4.728,4.349,7.06c1.197,2.331,2.017,4.728,2.017,7.249c0,3.087-0.505,5.987-1.954,8.13
				c-1.449,2.144-3.782,3.53-7.5,3.53c-4.349,0-6.808-1.64-8.195-4.161c-1.386-2.521-1.701-5.861-1.701-9.329l6.682-0.629
				c0,1.953,0.063,3.907,0.566,5.357c0.441,1.513,1.197,2.521,2.648,2.521c2.017,0,2.772-2.144,2.772-5.104
				c0-1.514-0.756-3.278-1.765-5.106c-0.567-0.881-1.134-1.828-1.765-2.772c-1.324-1.891-2.774-4.034-4.286-6.365
				c-1.514-2.332-2.647-4.729-3.341-7.186c-0.378-1.198-0.567-2.459-0.567-3.719c0-2.521,0.567-5.231,2.018-7.311
				c1.449-2.017,3.655-3.466,6.87-3.531c4.097-0.062,6.492,1.639,7.816,4.098c1.322,2.521,1.701,5.608,1.701,8.194L64.523,42.264z"
				/>
		</g>
		<g>
			<path d="M74.857,29.846h6.808v46.327h-6.808V29.846z"/>
		</g>
		<g>
			<path d="M86.707,76.173V29.846h5.356c6.303,0,9.707,1.261,11.535,4.79c1.765,3.53,2.016,9.328,2.016,18.406
				c0,9.075-0.251,14.811-2.016,18.341c-1.828,3.53-5.232,4.79-11.535,4.79H86.707z M93.513,69.367c2.331,0,3.656-0.254,4.35-2.522
				c0.314-1.072,0.568-2.71,0.63-4.917c0.064-2.205,0.064-5.168,0.064-8.95c0-3.781,0-6.744-0.064-8.95
				c-0.062-2.143-0.315-3.781-0.63-4.916c-0.693-2.207-2.019-2.458-4.35-2.458V69.367z"/>
		</g>
		<g>
			<path d="M110.152,29.846h15.567v6.996h-8.762v12.166h6.304v7.437h-6.304v12.732h8.762v6.996h-15.567V29.846z"/>
		</g>
	</g>
	<g>
		<g>
			<path d="M18.153,46.989c-0.063,1.892-0.442,3.593-1.135,5.042c-0.567,1.262-1.45,2.459-2.711,3.405
				c-1.26,1.008-2.961,1.575-5.231,1.575s-4.034-0.567-5.294-1.575c-1.261-0.946-2.08-2.144-2.648-3.405
				C0.441,50.582,0.063,48.881,0,46.989V19.698c0.063-1.828,0.441-3.53,1.134-4.979c0.568-1.261,1.387-2.521,2.648-3.466
				c1.261-0.946,3.025-1.576,5.294-1.576s3.971,0.63,5.231,1.576c1.261,0.945,2.144,2.206,2.711,3.466
				c0.693,1.45,1.071,3.151,1.135,4.979V46.989z M11.346,19.698c0-1.261-0.252-2.144-0.883-2.899
				c-0.315-0.314-0.819-0.504-1.386-0.504c-1.198,0-1.765,0.883-2.017,1.701c-0.189,0.505-0.253,1.072-0.253,1.702v27.291
				c0,1.324,0.315,2.207,0.945,2.899c0.315,0.315,0.757,0.504,1.324,0.504c1.197,0,1.765-0.756,2.017-1.7
				c0.189-0.443,0.252-1.009,0.252-1.703V19.698z"/>
		</g>
		<g>
			<path d="M38.949,17.178h-9.39v12.164h6.303v6.997h-6.303v20.168h-6.808V10.181h16.198V17.178z"/>
		</g>
		<g>
			<path d="M57.921,17.178H48.53v12.164h6.301v6.997H48.53v20.168h-6.808V10.181h16.198V17.178z"/>
		</g>
	</g>
	<g>
		<path fill="#EEE20D" d="M37.234,83.883c1.648-7.409,4.815-14.372,6.987-21.031l0,0c2.273-6.941,4.463-13.918,6.626-20.913l0,0
			C55.164,27.978,59.373,13.949,63.938,0l0,0l5.211,1.706C64.61,15.568,60.41,29.568,56.084,43.561l0,0
			c-2.167,7.008-4.365,14.013-6.655,21l0,0c-2.314,7.034-5.383,13.856-6.842,20.507l0,0L37.234,83.883L37.234,83.883z"/>
	</g>
	<g>
		<path d="M127.427,72.467h3.437V76.1h-3.437V72.467z"/>
		<path d="M136.232,58.197v18.36c0,0.916,0,2.357-0.459,3.535c-0.457,1.211-1.472,2.16-3.338,2.16c-0.523,0-0.883-0.033-1.113-0.099
			c-0.13-0.031-0.229-0.065-0.327-0.098v-3.044c0.098,0.032,0.197,0.032,0.294,0.066c0.229,0.032,0.426,0.063,0.623,0.063
			c0.556,0,0.817-0.456,0.949-1.013c0.032-0.264,0.065-0.557,0.065-0.852s0-0.558,0-0.753V58.197H136.232z M132.927,52.046h3.306
			v3.305h-3.306V52.046z"/>
		<path d="M143.857,62.779c0-0.425,0-0.948-0.13-1.374c-0.164-0.394-0.425-0.72-0.95-0.72c-0.425,0-0.688,0.326-0.817,0.72
			c-0.164,0.393-0.196,0.949-0.196,1.374c0,0.557,0.294,1.146,0.72,1.669c0.393,0.525,0.916,1.048,1.439,1.539
			c0.688,0.687,1.505,1.472,2.063,2.355c0.556,0.919,0.981,1.932,0.981,3.11c0,1.146-0.262,2.356-0.915,3.271
			c-0.688,0.949-1.735,1.637-3.306,1.637c-1.998,0-3.176-0.916-3.83-2.029c-0.654-1.112-0.786-2.485-0.786-3.436h3.078
			c0,0.49,0.031,1.18,0.261,1.703c0.229,0.555,0.589,1.013,1.277,1.013c0.948,0,1.146-1.112,1.146-2.159
			c0-1.081-1.048-2.16-2.063-3.176c-0.786-0.751-1.539-1.439-2.128-2.323c-0.589-0.883-1.015-1.866-1.015-3.175
			c0-1.047,0.196-2.257,0.818-3.207c0.622-0.916,1.636-1.604,3.207-1.637c1.931-0.031,3.012,0.688,3.568,1.637
			c0.558,0.95,0.654,2.192,0.654,3.207H143.857z"/>
	</g>
</g>
</svg>
